<?xml version="1.0" standalone="no"?>
<!DOCTYPE svg PUBLIC "-//W3C//DTD SVG 1.1//EN" "http://www.w3.org/Graphics/SVG/1.1/DTD/svg11.dtd" >
<svg xmlns="http://www.w3.org/2000/svg">
<metadata></metadata>
<defs>
<font id="tungaregular" horiz-adv-x="888" >
<font-face units-per-em="2048" ascent="1638" descent="-410" />
<missing-glyph horiz-adv-x="640" />
<glyph horiz-adv-x="0" />
<glyph unicode="&#xd;" horiz-adv-x="640" />
<glyph unicode=" "  horiz-adv-x="640" />
<glyph unicode="&#x09;" horiz-adv-x="640" />
<glyph unicode="&#xa0;" horiz-adv-x="640" />
<glyph unicode="!" horiz-adv-x="580" d="M189 1544h200l-32 -1144h-136zM191 100q0 41 29.5 70.5t70.5 29.5t70.5 -29.5t29.5 -70.5t-29.5 -70.5t-70.5 -29.5t-70.5 29.5t-29.5 70.5z" />
<glyph unicode="&#x22;" horiz-adv-x="640" d="M121 1166q0 31 20 59.5t48 28.5t48 -28.5t20 -59.5q0 -163 -68 -234q-68 71 -68 234zM383 1166q0 31 20 59.5t48 28.5t48 -28.5t20 -59.5q0 -163 -68 -234q-68 71 -68 234z" />
<glyph unicode="#" horiz-adv-x="1090" d="M92 266l25 123h178l56 210h-181l25 124h187l63 266h129l-64 -266h188l64 266h128l-63 -266h172l-25 -124h-179l-55 -210h180l-26 -123h-185l-63 -266h-129l64 266h-188l-64 -266h-128l63 266h-172zM421 389h191l58 211h-191z" />
<glyph unicode="$" d="M61 323h151q18 -194 189 -224v436q-316 63 -316 308q0 69 22.5 125.5t63.5 97.5t99.5 66t130.5 31v120h83v-120q278 -21 305 -283h-152q-12 144 -153 164v-392q194 -39 263 -116q35 -38 52.5 -89.5t17.5 -117.5q0 -67 -22.5 -128t-65.5 -108.5t-105 -77t-140 -33.5v-121 h-83v119q-318 36 -340 343zM236 855q0 -45 12 -76t34 -52.5t52.5 -35t66.5 -22.5v377q-165 -30 -165 -191zM484 99q181 23 181 221q0 40 -8 70.5t-28 53.5t-55.5 40.5t-89.5 31.5v-417z" />
<glyph unicode="%" horiz-adv-x="1040" d="M108 0l734 1188l91 -68l-732 -1188zM135 976q0 78 51 137.5t128 59.5t131 -60q51 -59 51 -137t-52 -136.5t-130 -58.5q-77 0 -129 60q-50 57 -50 135zM239 976q0 -35 20 -61q21 -29 55 -29t56 29q20 26 20 61t-21 63t-55 28q-33 0 -54 -28t-21 -63zM551 165 q0 78 51 137.5t128 59.5t131 -60q51 -59 51 -137t-52 -136.5t-130 -58.5q-77 0 -129 60q-50 57 -50 135zM655 165q0 -35 20 -61q21 -29 55 -29t56 29q20 26 20 61t-21 63t-55 28q-33 0 -54 -28t-21 -63z" />
<glyph unicode="&#x26;" horiz-adv-x="1050" d="M100 344q0 208 168 317q-40 44 -72 109q-36 73 -36 124q0 101 75 166q71 62 174 62q107 0 179.5 -65.5t72.5 -162.5q0 -76 -52 -149q-47 -67 -117 -107l217 -246q31 75 31 224v9h124q0 -211 -59 -354l145 -180l-105 -84l-105 134q-96 -141 -306 -141q-155 0 -249 106 q-85 97 -85 238zM236 343q0 -76 51 -123q57 -52 161 -52q124 0 196 97l-276 307q-132 -91 -132 -229zM296 894q0 -32 36 -90q32 -51 64 -82q49 24 87 71q40 52 40 101q0 101 -117 101q-110 0 -110 -101z" />
<glyph unicode="'" horiz-adv-x="360" d="M112 1166q0 31 20 59.5t48 28.5t48 -28.5t20 -59.5q0 -163 -68 -234q-68 71 -68 234z" />
<glyph unicode="(" horiz-adv-x="540" d="M76 561q0 319 92 567q67 182 226 413l70 -70q-260 -406 -260 -910q-4 -511 260 -910l-70 -70q-315 390 -318 980z" />
<glyph unicode=")" horiz-adv-x="540" d="M76 -349q264 399 260 910q0 504 -260 910l70 70q159 -231 227 -413q91 -248 91 -567q-3 -590 -318 -980z" />
<glyph unicode="*" horiz-adv-x="860" d="M105 496v128h206l-143 139l56 55l141 -138v201h128v-203l142 140l55 -55l-141 -139h204v-128h-204l141 -136l-55 -55l-142 137v-203h-128v201l-141 -138l-56 55l143 139h-206z" />
<glyph unicode="+" horiz-adv-x="860" d="M105 496v128h260v257h128v-257h260v-128h-260v-257h-128v257h-260z" />
<glyph unicode="," horiz-adv-x="552" d="M173 100q0 41 29.5 70.5t70.5 29.5q50 0 80 -41q26 -36 26 -88q0 -92 -38 -166q-46 -87 -128 -100v80q39 8 64 46q22 35 22 73q-14 -4 -28 -4q-42 0 -70 31t-28 69z" />
<glyph unicode="-" horiz-adv-x="860" d="M105 497v127h648v-127h-648z" />
<glyph unicode="." horiz-adv-x="552" d="M176 100q0 41 29.5 70.5t70.5 29.5t70.5 -29.5t29.5 -70.5t-29.5 -70.5t-70.5 -29.5t-70.5 29.5t-29.5 70.5z" />
<glyph unicode="/" horiz-adv-x="1020" d="M98 0l734 1188l91 -68l-732 -1188z" />
<glyph unicode="0" horiz-adv-x="1062" d="M88 554q0 226 130 390t313 164t313 -164t130 -390t-130 -390t-313 -164t-313 164t-130 390zM224 554q0 -173 85 -293q88 -125 222 -125t222 125q85 120 85 293t-85 293q-88 125 -222 125t-222 -125q-85 -120 -85 -293z" />
<glyph unicode="1" horiz-adv-x="568" d="M42 889l228 199h136v-1088h-136v936l-155 -133z" />
<glyph unicode="2" horiz-adv-x="944" d="M88 0v149q0 114 158 228q146 92 293 184q158 107 158 202q0 209 -245 209q-172 0 -228 -132h-136q16 84 104 166q110 102 260 102q181 0 281 -90t100 -255q0 -145 -154 -269q-20 -16 -286 -184q-154 -97 -154 -174h617v-136h-768z" />
<glyph unicode="3" horiz-adv-x="924" d="M88 268h136q56 -132 228 -132q123 0 190 64q58 54 58 133q0 153 -248 153v136q248 0 248 154q0 79 -57 133q-68 63 -191 63q-172 0 -228 -132h-136q16 84 104 166q110 102 260 102q192 0 296 -111q88 -94 88 -231q0 -64 -50 -134q-47 -66 -92 -77q46 -10 93 -74 q49 -68 49 -134q0 -138 -87 -233q-104 -114 -297 -114q-150 0 -260 102q-88 82 -104 166z" />
<glyph unicode="4" horiz-adv-x="1084" d="M88 269v143l568 676h145v-683h195v-136h-195v-269h-136v269h-577zM251 405h414v491z" />
<glyph unicode="5" horiz-adv-x="886" d="M82 125l78 100q104 -89 249 -89q115 0 190 68q69 65 69 154q0 102 -94 169q-107 75 -304 75q-29 0 -88 -1.5t-88 -1.5v489h681v-136h-545v-230q574 0 574 -358q0 -172 -124 -273q-112 -91 -275 -91q-196 0 -323 125z" />
<glyph unicode="6" horiz-adv-x="977" d="M88 554q0 226 129 390t314 164q160 0 285 -133l-91 -90q-75 87 -194 87q-142 0 -229 -132q-78 -120 -78 -286q0 -26 3 -48q109 183 314 183q166 0 263 -109q85 -97 85 -233q0 -137 -97 -238q-103 -109 -261 -109q-199 0 -328 185q-115 165 -115 369zM252 373 q32 -102 108 -168q79 -69 171 -69q103 0 165 66q57 60 57 144q0 80 -59 141q-64 66 -162 66q-86 0 -163 -48q-80 -49 -117 -132z" />
<glyph unicode="7" horiz-adv-x="798" d="M89 952v136h700v-124q-248 -210 -349 -390q-121 -216 -121 -518q0 -19 4 -56h-136q-4 36 -4 56q0 522 419 896h-513z" />
<glyph unicode="8" horiz-adv-x="944" d="M88 338q0 89 44.5 162.5t123.5 105.5q-112 61 -112 203q0 118 82 203q92 96 246 96t246 -96q82 -85 82 -203q0 -142 -112 -203q79 -32 125 -107q43 -72 43 -160q0 -136 -94 -231q-106 -108 -291 -108q-184 0 -290 107q-93 95 -93 231zM224 338q0 -81 66 -139 q71 -63 182 -63t182 63q66 58 66 139q0 74 -59 128q-67 61 -189 75q-122 -14 -189 -75q-59 -54 -59 -128zM280 817q0 -124 192 -166q192 42 192 166q0 62 -55 108.5t-137 46.5t-137 -46.5t-55 -108.5z" />
<glyph unicode="9" horiz-adv-x="977" d="M88 761q0 137 97 238q103 109 261 109q199 0 328 -185q115 -165 115 -369q0 -248 -124.5 -401t-318.5 -153q-160 0 -285 133l91 90q75 -87 194 -87q307 0 307 418q0 26 -3 48q-109 -183 -314 -183q-166 0 -263 109q-85 97 -85 233zM224 762q0 -80 59 -141q64 -66 162 -66 q86 0 164.5 48.5t115.5 131.5q-32 102 -108 168q-79 69 -171 69q-103 0 -165 -66q-57 -60 -57 -144z" />
<glyph unicode=":" horiz-adv-x="552" d="M176 100q0 41 29.5 70.5t70.5 29.5t70.5 -29.5t29.5 -70.5t-29.5 -70.5t-70.5 -29.5t-70.5 29.5t-29.5 70.5zM176 529q0 41 29.5 70.5t70.5 29.5t70.5 -29.5t29.5 -70.5t-29.5 -70.5t-70.5 -29.5t-70.5 29.5t-29.5 70.5z" />
<glyph unicode=";" horiz-adv-x="552" d="M173 100q0 41 29.5 70.5t70.5 29.5q50 0 80 -41q26 -36 26 -88q0 -92 -38 -166q-46 -87 -128 -100v80q39 8 64 46q22 35 22 73q-14 -4 -28 -4q-42 0 -70 31t-28 69zM173 529q0 41 29.5 70.5t70.5 29.5t70.5 -29.5t29.5 -70.5t-29.5 -70.5t-70.5 -29.5t-70.5 29.5 t-29.5 70.5z" />
<glyph unicode="&#x3c;" horiz-adv-x="933" d="M71 459v104l757 362l34 -142l-572 -272l572 -272l-34 -142z" />
<glyph unicode="=" horiz-adv-x="860" d="M105 377v128h648v-128h-648zM105 615v128h648v-128h-648z" />
<glyph unicode="&#x3e;" horiz-adv-x="933" d="M71 239l572 272l-572 272l34 140l757 -360v-104l-757 -362z" />
<glyph unicode="?" horiz-adv-x="920" d="M149 1232q0 131 89 221.5t223 90.5q115 0 206 -77q105 -88 105 -233q0 -109 -74 -200q-68 -68 -136 -135q-73 -75 -73 -142v-355h-136v355q0 115 73 201l136 126q74 71 74 151q0 88 -68 136q-51 37 -108 37q-76 0 -125.5 -51.5t-49.5 -124.5h-136zM321 100q0 41 29 70.5 t71 29.5q41 0 70.5 -29.5t29.5 -70.5t-29.5 -70.5t-70.5 -29.5q-42 0 -71 29.5t-29 70.5z" />
<glyph unicode="@" horiz-adv-x="1500" d="M119 489q0 260 185.5 445.5t445.5 185.5q261 0 446 -185t185 -446q0 -152 -61 -263q-74 -137 -214 -137q-136 0 -197 137q-74 -80 -191 -80q-137 0 -220 105q-77 97 -77 237q0 141 77 236q82 102 220 102q103 0 162 -56v41h133v-460q0 -134 93 -134q76 0 117 105 q30 78 30 167q0 206 -148 352.5t-355 146.5q-208 0 -353.5 -145.5t-145.5 -353.5t146 -354.5t353 -146.5v-132q-261 0 -446 186t-185 447zM563 488q0 -212 155 -212q154 0 154 218q0 202 -154 202q-77 0 -119 -69q-36 -58 -36 -139z" />
<glyph unicode="A" horiz-adv-x="1065" d="M-2 0l440 1143h163l466 -1143h-171l-132 348h-479l-127 -348h-160zM326 468h393l-201 530z" />
<glyph unicode="B" horiz-adv-x="1065" d="M128 0v1143h407q91 0 163.5 -20t123.5 -57.5t78 -91.5t27 -122q0 -166 -165 -245q55 -14 96.5 -41t69 -63t41.5 -79.5t14 -91.5q0 -161 -108.5 -246.5t-318.5 -85.5h-428zM279 136h276q271 0 271 196q0 50 -14 87t-48 61.5t-89.5 36.5t-139.5 12h-256v-393zM279 665h255 q125 0 184.5 40t59.5 133q0 42 -13.5 74t-44 53t-80 32t-121.5 11h-240v-343z" />
<glyph unicode="C" horiz-adv-x="1154" d="M75 572q0 136 38 245.5t107.5 186t168 118t218.5 41.5q92 0 173 -26.5t143 -74.5t101.5 -115.5t47.5 -149.5h-156q-5 54 -29.5 97.5t-65 74.5t-95 47.5t-118.5 16.5q-86 0 -155.5 -30.5t-118.5 -89t-75.5 -144.5t-26.5 -197t26 -197t74.5 -145t117.5 -89.5t155 -30.5 q134 0 217 65t94 188h156q-8 -92 -46 -163.5t-99 -120t-142.5 -74t-177.5 -25.5q-121 0 -219.5 41.5t-168 118.5t-107 186.5t-37.5 245.5z" />
<glyph unicode="D" horiz-adv-x="1154" d="M128 0v1143h363q582 0 582 -565q0 -578 -582 -578h-363zM279 136h208q250 0 340 115t90 327q0 206 -90 317q-90 113 -340 113h-208v-872z" />
<glyph unicode="E" horiz-adv-x="1065" d="M128 0v1143h826v-135h-675v-350h631v-135h-631v-387h701v-136h-852z" />
<glyph unicode="F" horiz-adv-x="976" d="M128 0v1143h771v-135h-620v-354h538v-136h-538v-518h-151z" />
<glyph unicode="G" horiz-adv-x="1243" d="M75 572q0 134 40 243t112 186.5t173 119.5t223 42q102 0 189.5 -26t153 -74t106 -115.5t48.5 -150.5h-157q-5 55 -30.5 99t-69.5 74.5t-104.5 46.5t-133.5 16q-88 0 -160.5 -30.5t-124 -89.5t-80 -144.5t-28.5 -196.5q0 -109 28.5 -195t80.5 -145t124.5 -90.5 t160.5 -31.5q246 0 368 163v174h-302v136h448v-583h-107l-39 120q-117 -140 -366 -140q-123 0 -225 42.5t-174.5 120t-113 186.5t-40.5 243z" />
<glyph unicode="H" horiz-adv-x="1154" d="M128 0v1143h151v-469h595v469h152v-1143h-152v538h-595v-538h-151z" />
<glyph unicode="I" horiz-adv-x="444" d="M147 0v1143h152v-1143h-152z" />
<glyph unicode="J" horiz-adv-x="799" d="M43 296v30h152q0 -209 155 -209q82 0 126 46q43 44 43 195v785h152v-777q0 -106 -20.5 -179.5t-61 -119.5t-100.5 -66.5t-139 -20.5q-71 0 -128 23t-96.5 64.5t-61 99.5t-21.5 129z" />
<glyph unicode="K" horiz-adv-x="1065" d="M128 0v1143h151v-567l558 567h204l-479 -469l500 -674h-199l-406 570l-178 -174v-396h-151z" />
<glyph unicode="L" d="M128 0v1143h151v-1007h556v-136h-707z" />
<glyph unicode="M" horiz-adv-x="1331" d="M128 0v1143h227l310 -953l311 953h227v-1143h-144v973l-326 -973h-136l-326 973v-973h-143z" />
<glyph unicode="N" horiz-adv-x="1154" d="M128 0v1143h154l599 -902v902h145v-1143h-156l-599 902v-902h-143z" />
<glyph unicode="O" horiz-adv-x="1243" d="M75 572q0 133 40.5 242t113.5 186.5t173.5 120t220.5 42.5q119 0 219.5 -42.5t173 -120t113 -186.5t40.5 -242t-40.5 -242t-113 -187t-173 -120.5t-219.5 -42.5q-120 0 -220.5 42.5t-173.5 120.5t-113.5 187t-40.5 242zM232 572q0 -109 29 -194.5t81 -145t123.5 -91 t156.5 -31.5t156.5 31.5t123.5 91t81 145t29 194.5t-29 194.5t-80.5 145t-122.5 90.5t-155 31q-85 0 -157 -31t-124.5 -90t-82 -145t-29.5 -195z" />
<glyph unicode="P" horiz-adv-x="1065" d="M128 0v1143h427q70 0 128 -6t106 -20q47 -13 85 -42.5t65 -70.5t41.5 -91t14.5 -103q0 -174 -109 -263.5t-319 -89.5h-288v-457h-151zM279 593h290q73 0 124.5 14t83.5 41t46.5 66.5t14.5 90.5q0 34 -9 65t-25 56.5t-38.5 43t-48.5 24.5q-54 14 -152 14h-286v-415z" />
<glyph unicode="Q" horiz-adv-x="1243" d="M75 572q0 133 40.5 242t113.5 186.5t173.5 120t220.5 42.5q119 0 219.5 -42.5t173 -120t113 -186.5t40.5 -242q0 -261 -148 -425l168 -131l-90 -107l-189 149q-128 -78 -287 -78q-120 0 -220.5 42.5t-173.5 120.5t-113.5 187t-40.5 242zM232 572q0 -109 29 -194.5 t81 -145t123.5 -91t156.5 -31.5q92 0 172 38l-114 90l90 107l137 -109q105 126 105 336q0 109 -29 194.5t-80.5 145t-122.5 90.5t-155 31q-85 0 -157 -31t-124.5 -90t-82 -145t-29.5 -195z" />
<glyph unicode="R" horiz-adv-x="1154" d="M128 0v1143h506q66 0 120.5 -6t96.5 -19t77 -41.5t60 -68t39 -87t14 -98.5q0 -59 -18 -109t-51 -89t-80.5 -65.5t-106.5 -41.5q120 -40 181 -207l115 -311h-164l-107 305q-15 40 -39.5 74t-57 58.5t-72 38t-82.5 13.5h-280v-489h-151zM279 625h338q71 0 122 10.5t83.5 34 t47.5 61.5t15 92q0 195 -245 195h-361v-393z" />
<glyph unicode="S" horiz-adv-x="1065" d="M72 367h146q6 -65 34 -112t73 -77.5t103.5 -45.5t124.5 -15q63 0 115 13.5t89 39t57.5 61t20.5 80.5q0 48 -18.5 80.5t-61 57t-110.5 44t-167 40.5q-98 20 -168.5 49.5t-112.5 66.5q-85 73 -85 197q0 70 29.5 128t82.5 100t128 65.5t166 23.5q96 0 175 -23t136 -66.5 t90 -107.5t36 -146h-147q-23 207 -284 207q-127 0 -196 -47.5t-69 -126.5q0 -36 12.5 -62t42.5 -46t81 -36t128 -33q151 -32 242 -66q44 -16 83.5 -41t69.5 -60.5t47.5 -81.5t17.5 -104q0 -74 -31 -136.5t-87 -108.5t-134 -72t-172 -26q-122 0 -212 29t-150 80.5t-91 122.5 t-34 155z" />
<glyph unicode="T" horiz-adv-x="976" d="M35 1008v135h906v-135h-379v-1008h-152v1008h-375z" />
<glyph unicode="U" horiz-adv-x="1154" d="M128 482v661h151v-659q0 -224 76 -296q75 -71 221 -71q147 0 222 71q76 72 76 296v659h152v-661q0 -206 -50 -306q-100 -196 -400 -196q-198 0 -298 78q-97 76 -124 181q-14 53 -20 113.5t-6 129.5z" />
<glyph unicode="V" horiz-adv-x="1065" d="M9 1143h162l361 -980l361 980h162l-445 -1143h-156z" />
<glyph unicode="W" horiz-adv-x="1508" d="M19 1143h160l228 -931l258 931h181l258 -931l228 931h160l-317 -1143h-145l-274 994l-276 -994h-145z" />
<glyph unicode="X" horiz-adv-x="1065" d="M8 0l439 602l-396 541h185l296 -422l297 422h185l-397 -541l441 -602h-186l-338 484l-341 -484h-185z" />
<glyph unicode="Y" horiz-adv-x="1065" d="M8 1143h184l342 -526l340 526h184l-450 -659v-484h-151v484z" />
<glyph unicode="Z" horiz-adv-x="976" d="M29 0v142l710 866h-645v135h819v-141l-710 -866h730v-136h-904z" />
<glyph unicode="[" horiz-adv-x="630" d="M105 -424v1968h421v-123h-274v-1721h274v-124h-421z" />
<glyph unicode="\" horiz-adv-x="1020" d="M98 1120l91 68l734 -1188l-93 -68z" />
<glyph unicode="]" horiz-adv-x="630" d="M105 -300h274v1721h-274v123h421v-1968h-421v124z" />
<glyph unicode="^" horiz-adv-x="668" d="M64 1634l270 208l270 -208l-79 -90l-191 150l-190 -150z" />
<glyph unicode="_" horiz-adv-x="824" d="M0 -384h824v-128h-824v128z" />
<glyph unicode="`" horiz-adv-x="532" d="M67 1163h184l104 -219h-116z" />
<glyph unicode="a" d="M61 219q0 290 500 290h72q0 46 -1.5 77t-7.5 53t-18.5 37t-34.5 29q-44 27 -137 27q-196 0 -202 -141h-147q16 255 357 255q159 0 248 -63q89 -62 89 -248v-535h-146v85q-114 -105 -290 -105q-61 0 -113 17.5t-89.5 49t-58.5 75.5t-21 97zM212 227q0 -63 46.5 -97 t126.5 -34q36 0 71.5 8.5t68.5 24.5t60.5 38.5t47.5 50.5v183h-101q-320 0 -320 -174z" />
<glyph unicode="b" d="M108 0v1143h148v-414q97 117 236 117q81 0 144 -30t106.5 -85.5t66.5 -134.5t23 -176q0 -101 -26.5 -182.5t-73.5 -138.5t-111 -88t-139 -31q-133 0 -226 84v-64h-148zM256 197q94 -101 217 -101q96 0 151.5 81t55.5 243q0 154 -52.5 233t-148.5 79q-122 0 -223 -142 v-393z" />
<glyph unicode="c" horiz-adv-x="799" d="M56 413q0 104 28 184.5t79 136t122.5 84t158.5 28.5q67 0 125 -17.5t101.5 -51t71.5 -83.5t36 -114h-152q-2 37 -17 65.5t-39.5 47.5t-57 29t-68.5 10q-52 0 -95.5 -20t-75 -59.5t-49 -99.5t-17.5 -140q0 -78 17 -137.5t48.5 -99.5t75 -60t96.5 -20q36 0 68.5 9.5 t57 28.5t39.5 47.5t17 65.5h152q-8 -65 -36 -114.5t-71.5 -83.5t-101.5 -51.5t-125 -17.5q-88 0 -159.5 29t-122.5 84t-78.5 135.5t-27.5 184.5z" />
<glyph unicode="d" d="M56 407q0 101 26.5 182t73 138t111 88t139.5 31q135 0 227 -82v379h146v-1143h-146v99q-99 -119 -237 -119q-81 0 -144.5 30.5t-107 86.5t-66 134.5t-22.5 175.5zM207 407q0 -153 53.5 -232t148.5 -79q121 0 224 142v393q-96 101 -218 101q-95 0 -151.5 -81.5 t-56.5 -243.5z" />
<glyph unicode="e" d="M56 413q0 102 28.5 182.5t79.5 136t122.5 85t157.5 29.5q88 0 159.5 -29t122.5 -84.5t78.5 -136t27.5 -183.5v-35h-623q5 -73 26 -126t54.5 -87.5t77 -51.5t93.5 -17q38 0 74 10t64.5 29t46.5 47.5t20 64.5h152q-9 -64 -39.5 -114t-78 -84t-108.5 -51.5t-131 -17.5 q-91 0 -165.5 29.5t-127.5 85t-82 136t-29 182.5zM212 494h465q-18 120 -80 179t-153 59q-44 0 -82 -14.5t-68.5 -44t-51.5 -74.5t-30 -105z" />
<glyph unicode="f" horiz-adv-x="444" d="M12 712v116h122v73q0 262 232 262q71 0 110 -9v-128q-22 4 -44 5.5t-45 1.5q-54 0 -80 -30t-26 -104v-71h157v-116h-157v-712h-147v712h-122z" />
<glyph unicode="g" d="M56 407q0 101 26.5 182t73 138t111 88t139.5 31q135 0 227 -82v64h146v-764q0 -399 -360 -399q-78 0 -140 17.5t-105.5 50t-67 78.5t-23.5 104h152q0 -136 182 -136q50 0 90 12t68 43t43 85t15 139v41q-99 -119 -237 -119q-81 0 -144.5 30.5t-107 86.5t-66 134.5 t-22.5 175.5zM207 407q0 -153 53.5 -232t148.5 -79q121 0 224 142v393q-96 101 -218 101q-95 0 -151.5 -81.5t-56.5 -243.5z" />
<glyph unicode="h" d="M108 0v1143h148v-421q109 124 247 124q280 0 280 -305v-541h-147v535q0 102 -36.5 146t-119.5 44q-112 0 -224 -132v-593h-148z" />
<glyph unicode="i" horiz-adv-x="364" d="M108 0v828h148v-828h-148zM108 984v159h148v-159h-148z" />
<glyph unicode="j" horiz-adv-x="364" d="M-56 -201q44 -11 82 -11q24 0 39.5 7t25 25.5t13.5 52t4 86.5v869h148v-872q0 -178 -56 -234q-58 -56 -157 -56q-30 0 -54.5 1.5t-44.5 6.5v125zM108 984v159h148v-159h-148z" />
<glyph unicode="k" horiz-adv-x="799" d="M108 0v1143h148v-648l319 333h185l-313 -309l345 -519h-175l-269 420l-92 -91v-329h-148z" />
<glyph unicode="l" horiz-adv-x="364" d="M108 0v1143h148v-1143h-148z" />
<glyph unicode="m" horiz-adv-x="1331" d="M108 0v828h148v-106q103 124 231 124q182 0 232 -149q42 48 77 79t64 44q58 26 113 26q254 0 254 -305v-541h-147v535q0 103 -29.5 146.5t-99.5 43.5q-107 0 -210 -132v-593h-147v535q0 103 -29.5 146.5t-99.5 43.5q-107 0 -209 -132v-593h-148z" />
<glyph unicode="n" d="M108 0v828h148v-106q109 124 247 124q280 0 280 -305v-541h-147v535q0 102 -36.5 146t-119.5 44q-112 0 -224 -132v-593h-148z" />
<glyph unicode="o" d="M56 413q0 104 28 184.5t79 136t122.5 84t158.5 28.5q88 0 159.5 -29t122.5 -84.5t78.5 -136t27.5 -183.5q0 -102 -27.5 -182.5t-78.5 -136t-122.5 -85t-159.5 -29.5t-159.5 29t-122.5 84t-78.5 135.5t-27.5 184.5zM207 413q0 -78 17 -137.5t48.5 -99.5t75 -60t96.5 -20 q52 0 95.5 20t75 60t48.5 99.5t17 137.5q0 80 -17.5 140t-49 99.5t-74.5 59.5t-95 20t-95.5 -20t-75 -59.5t-49 -99.5t-17.5 -140z" />
<glyph unicode="p" d="M108 -318v1146h148v-99q97 117 236 117q81 0 144 -30t106.5 -85.5t66.5 -134.5t23 -176q0 -101 -26.5 -182.5t-73.5 -138.5t-111 -88t-139 -31q-133 0 -226 84v-382h-148zM256 197q94 -101 217 -101q96 0 151.5 81t55.5 243q0 154 -52.5 233t-148.5 79q-122 0 -223 -142 v-393z" />
<glyph unicode="q" d="M56 407q0 101 26.5 182t73 138t111 88t139.5 31q135 0 227 -82v64h146v-1146h-146v417q-99 -119 -237 -119q-81 0 -144.5 30.5t-107 86.5t-66 134.5t-22.5 175.5zM207 407q0 -153 53.5 -232t148.5 -79q121 0 224 142v393q-96 101 -218 101q-95 0 -151.5 -81.5 t-56.5 -243.5z" />
<glyph unicode="r" horiz-adv-x="532" d="M108 0v828h148v-116q91 134 215 134q31 0 67 -6v-147q-30 10 -90 10q-111 0 -192 -118v-585h-148z" />
<glyph unicode="s" horiz-adv-x="799" d="M49 247h148q0 -151 205 -151q92 0 140 38t48 95q0 28 -9.5 46t-36 32.5t-73.5 28t-122 31.5q-147 38 -213 82q-67 46 -67 159q0 52 22 95.5t62.5 75t97.5 49.5t126 18q324 0 332 -231h-147q-8 117 -175 117q-36 0 -67 -7t-54.5 -20.5t-37 -34.5t-13.5 -48q0 -50 38 -71 t187 -57q76 -18 131.5 -39.5t91.5 -45.5q37 -23 55 -65t18 -101q0 -56 -23.5 -104.5t-67 -83.5t-104.5 -55t-137 -20q-340 0 -355 267z" />
<glyph unicode="t" horiz-adv-x="444" d="M27 712v116h102v205h147v-205h134v-116h-134v-477q0 -44 5.5 -70t16 -39.5t25.5 -17.5t33 -4q38 0 74 6v-112q-48 -9 -106 -9q-72 0 -111 19t-58 52.5t-22.5 80t-3.5 102.5v469h-102z" />
<glyph unicode="u" d="M105 286v542h148v-536q0 -101 35.5 -145.5t118.5 -44.5q123 0 226 133v593h146v-828h-146v105q-111 -125 -248 -125q-280 0 -280 306z" />
<glyph unicode="v" horiz-adv-x="799" d="M21 828h159l219 -648l220 648h159l-313 -828h-131z" />
<glyph unicode="w" horiz-adv-x="1154" d="M8 828h163l152 -631l186 631h134l188 -631l152 631h162l-249 -828h-140l-180 608l-178 -608h-141z" />
<glyph unicode="x" horiz-adv-x="799" d="M11 0l306 430l-282 398h183l181 -290l182 290h183l-282 -397l306 -431h-183l-206 323l-206 -323h-182z" />
<glyph unicode="y" horiz-adv-x="799" d="M21 828h159l219 -648l220 648h159l-313 -828q-23 -60 -42.5 -105.5t-34.5 -77.5q-16 -32 -36.5 -59.5t-46 -48t-57 -32.5t-68.5 -12q-27 0 -51 2.5t-44 8.5v135q36 -11 70 -11q110 0 179 200z" />
<glyph unicode="z" horiz-adv-x="799" d="M32 0v125l516 578h-486v125h677v-125l-515 -578h541v-125h-733z" />
<glyph unicode="{" horiz-adv-x="850" d="M91 492v136q135 -1 208 124q62 106 62 268q0 524 300 524h98v-122h-80q-100 0 -148 -122q-37 -93 -37 -234q0 -195 -26 -293q-44 -160 -171 -213q127 -53 171 -213q26 -98 26 -293q0 -141 37 -234q48 -122 148 -122h80v-122h-98q-300 0 -300 524q0 162 -62 268 q-73 125 -208 124z" />
<glyph unicode="|" horiz-adv-x="320" d="M102 0v1545h116v-1545h-116z" />
<glyph unicode="}" horiz-adv-x="850" d="M91 -302h80q100 0 148 122q37 93 37 234q0 195 26 293q44 160 171 213q-127 53 -171 213q-26 98 -26 293q0 141 -37 234q-48 122 -148 122h-80v122h98q300 0 300 -524q0 -162 62 -268q73 -125 208 -124v-136q-135 1 -208 -124q-62 -106 -62 -268q0 -524 -300 -524h-98 v122z" />
<glyph unicode="~" horiz-adv-x="1060" d="M88 342v42q0 166 37 242q55 110 207 110q101 0 172 -63q33 -40 109 -143q55 -72 112 -72q89 0 116 102q11 42 14 173h117v-42q0 -166 -39 -243q-55 -108 -205 -108q-106 0 -174 69q-19 23 -104 137q-54 72 -114 72q-90 0 -117 -102q-12 -44 -15 -174h-116z" />
<glyph horiz-adv-x="799" />
<glyph unicode="&#xa1;" horiz-adv-x="444" d="M142 -69l30 612h99l31 -612v-248h-160v248zM142 668v160h160v-160h-160z" />
<glyph unicode="&#xa2;" d="M88 413q0 103 27.5 184t78.5 136t122.5 84t159.5 29q17 0 32.5 -1t31.5 -3l50 181l81 -23l-49 -177q167 -65 188 -243h-152q-1 80 -70 123l-166 -601q25 -6 54 -6q36 0 68.5 9.5t57 28.5t39.5 47.5t17 65.5h152q-8 -65 -36 -114.5t-71.5 -83.5t-101.5 -51.5t-125 -17.5 q-21 0 -42 2.5t-44 6.5l-51 -184l-82 23l51 184q-220 100 -220 401zM239 413q0 -197 104 -274l165 591q-5 1 -13 1.5t-19 0.5q-52 0 -95.5 -20t-75 -59.5t-49 -99.5t-17.5 -140z" />
<glyph unicode="&#xa3;" d="M38 -20v142q81 42 123 109t42 188q0 51 -13 97h-152v115h120q-39 135 -39 206q0 77 26.5 137.5t73.5 102.5t112 64t142 22q73 0 134 -19.5t106 -57t72.5 -92.5t32.5 -127h-152q-15 181 -196 181q-45 0 -82 -16t-63.5 -43t-40.5 -63t-14 -76q0 -44 10.5 -98.5t32.5 -120.5 h245v-115h-219q6 -18 9.5 -35t3.5 -34q0 -100 -32 -166q-31 -65 -109 -126q27 9 55.5 13t57.5 4q19 0 47.5 -3.5t61 -9.5t66 -12t63.5 -12t54 -9.5t36 -3.5q90 0 172 43v-149q-75 -36 -166 -36q-58 0 -172 36q-116 35 -172 35q-127 0 -276 -71z" />
<glyph unicode="&#xa4;" d="M59 275l109 109q-55 85 -55 181q0 97 55 182l-27 27q-14 14 -34 34.5t-48 47.5l92 91q108 -107 108 -109q82 58 185 58t185 -58l109 109l91 -91l-108 -109q54 -86 54 -182t-56 -181l110 -109l-91 -91l-109 107q-83 -56 -185 -56q-103 0 -185 57l-108 -108zM241 565 q0 -42 16 -78.5t43.5 -64t64.5 -43.5t79 -16q41 0 78 16t64.5 43.5t44 64.5t16.5 78t-16.5 78t-44 64.5t-64.5 44t-78 16.5q-42 0 -78.5 -16.5t-64.5 -44t-44 -64.5t-16 -78z" />
<glyph unicode="&#xa5;" d="M2 1143h166l276 -506l278 506h166l-298 -521h247v-110h-321v-140h321v-108h-321v-264h-141v264h-324v108h324v140h-324v110h249z" />
<glyph unicode="&#xa6;" horiz-adv-x="415" d="M147 262h121v-597h-121v597zM147 546v597h121v-597h-121z" />
<glyph unicode="&#xa7;" d="M67 502q0 141 176 222q-104 88 -104 193q0 47 20 91t57.5 78.5t90.5 55.5t120 21q145 0 228.5 -71t97.5 -199h-152q-15 155 -167 155q-70 0 -109 -35t-39 -89q0 -52 49 -98q48 -45 222 -150q173 -103 218 -171t45 -142q0 -140 -178 -226q123 -78 123 -217 q0 -55 -23 -101.5t-64 -80.5t-98 -53.5t-124 -19.5q-71 0 -129.5 18t-103 53.5t-72 87.5t-36.5 121h152q17 -163 189 -163q39 0 69.5 11t51.5 30t31.5 44t10.5 52q0 54 -59 102q-57 48 -235 155q-176 108 -217 177q-41 67 -41 149zM207 518q0 -58 39 -103q36 -43 159 -119 q61 -37 103 -62.5t65 -41.5q106 53 106 143q0 27 -9.5 51.5t-32.5 50.5t-61.5 54.5t-95.5 62.5t-98.5 63t-70.5 52q-104 -50 -104 -151z" />
<glyph unicode="&#xa8;" horiz-adv-x="532" d="M49 976v160h144v-160h-144zM339 976v160h143v-160h-143z" />
<glyph unicode="&#xa9;" horiz-adv-x="1177" d="M0 575q0 243 173 416q175 172 417 172q239 0 414 -173q173 -173 173 -415q0 -241 -172 -416q-173 -173 -415 -173t-417 172q-173 175 -173 417zM97 575q0 -203 144 -348q144 -144 347 -144q202 0 346 144q146 146 146 348q0 201 -145 346q-144 144 -347 144t-347 -144 t-144 -346zM281 573q0 76 22 137.5t63 104.5t99 66t131 23q51 0 96 -13.5t80.5 -38.5t59 -62t31.5 -83h-109q-22 111 -161 111q-49 0 -87 -17.5t-64.5 -50t-40 -78t-13.5 -102.5q0 -54 14.5 -98.5t41 -76t64 -49t82.5 -17.5q144 0 170 122h109q-53 -215 -278 -215 q-69 0 -126.5 23.5t-98 67.5t-63 106.5t-22.5 139.5z" />
<glyph unicode="&#xaa;" horiz-adv-x="591" d="M34 743q0 195 335 195h51q0 46 -9.5 72.5t-26.5 39.5t-41 16.5t-52 3.5q-122 0 -126 -78h-114q15 171 246 171q57 0 100.5 -10.5t73.5 -35.5t45.5 -65t15.5 -98v-358h-112v56q-75 -69 -196 -69q-41 0 -75.5 11.5t-60 32.5t-40 50.5t-14.5 65.5zM62 404v92h461v-92h-461z M151 747q0 -72 102 -72q20 0 44 6.5t47 17.5t43.5 26t32.5 32v96h-70q-199 0 -199 -106z" />
<glyph unicode="&#xab;" d="M110 412l248 356h115l-203 -356l203 -356h-115zM415 412l248 356h115l-203 -356l203 -356h-115z" />
<glyph unicode="&#xac;" horiz-adv-x="933" d="M88 672v131h757v-479h-131v348h-626z" />
<glyph unicode="&#xad;" horiz-adv-x="532" d="M51 343v141h429v-141h-429z" />
<glyph unicode="&#xae;" horiz-adv-x="1177" d="M0 575q0 243 173 416q175 172 417 172q239 0 414 -173q173 -173 173 -415q0 -241 -172 -416q-173 -173 -415 -173t-417 172q-173 175 -173 417zM97 575q0 -203 144 -348q144 -144 347 -144q202 0 346 144q146 146 146 348q0 201 -145 346q-144 144 -347 144t-347 -144 t-144 -346zM337 249v632h238q251 0 251 -174q0 -167 -165 -180q84 -25 125 -120l67 -158h-117l-49 138q-43 124 -168 124h-80v-262h-102zM439 599h128q151 0 151 99q0 98 -156 98h-123v-197z" />
<glyph unicode="&#xaf;" horiz-adv-x="799" d="M-9 1264v79h817v-79h-817z" />
<glyph unicode="&#xb0;" horiz-adv-x="639" d="M104 942q0 45 17 84t46.5 68.5t68.5 46.5t84 17q44 0 83 -17t68.5 -46.5t46.5 -69t17 -83.5t-17 -83.5t-46.5 -69t-68.5 -47t-83 -17.5q-45 0 -84 17t-68.5 46.5t-46.5 69t-17 84.5zM189 942q0 -27 10.5 -51t28 -42t41.5 -28.5t51 -10.5q26 0 50 10.5t42 28.5t28.5 42 t10.5 51t-10.5 51t-28.5 41.5t-41.5 28t-50.5 10.5t-51 -10t-42 -28t-28 -42t-10 -51z" />
<glyph unicode="&#xb1;" horiz-adv-x="933" d="M88 0v131h757v-131h-757zM88 532v131h313v313h131v-313h313v-131h-313v-313h-131v313h-313z" />
<glyph unicode="&#xb2;" horiz-adv-x="532" d="M19 572q18 128 202 239q51 30 81.5 52.5t47.5 41t22.5 36t5.5 38.5q0 86 -107 86q-101 0 -117 -76h-119q33 169 238 169q53 0 95.5 -12.5t72 -35.5t45.5 -54.5t16 -69.5q0 -34 -8 -61t-27 -52t-50.5 -49.5t-77.5 -52.5q-90 -53 -139 -105h305v-94h-486z" />
<glyph unicode="&#xb3;" horiz-adv-x="532" d="M26 725h121q9 -77 115 -77q119 0 119 105q0 79 -122 79h-44v87q140 0 140 83q0 65 -94 65q-89 0 -101 -64h-122q30 155 224 155q51 0 90.5 -11.5t67 -31t42 -46t14.5 -57.5q0 -104 -107 -134q134 -24 134 -140q0 -38 -16.5 -70.5t-47 -57t-74 -38.5t-98.5 -14 q-218 0 -241 167z" />
<glyph unicode="&#xb4;" horiz-adv-x="532" d="M177 944l104 219h184l-173 -219h-115z" />
<glyph unicode="&#xb6;" horiz-adv-x="858" d="M-2 814q0 77 25.5 138t73.5 103.5t116 65t154 22.5h494v-114h-111v-1347h-131v1347h-175v-1347h-131v815q-76 5 -135 31t-99 68t-60.5 97.5t-20.5 120.5z" />
<glyph unicode="&#xb7;" horiz-adv-x="444" d="M142 482v160h160v-160h-160z" />
<glyph unicode="&#xb8;" horiz-adv-x="532" d="M104 -241q22 -2 43 -3.5t42 -1.5q100 0 100 64q0 59 -109 59v123h109v-59q131 -16 131 -125q0 -151 -236 -151q-18 0 -38 0.5t-42 2.5v91z" />
<glyph unicode="&#xb9;" horiz-adv-x="532" d="M83 916v96q203 0 203 146h84v-586h-113v382q-53 -38 -174 -38z" />
<glyph unicode="&#xba;" horiz-adv-x="583" d="M35 870q0 68 19 122t52.5 92t81 58.5t104.5 20.5t104.5 -20.5t81.5 -58.5t53 -92.5t19 -121.5q0 -68 -19 -122.5t-53 -92.5t-81.5 -58.5t-104.5 -20.5q-58 0 -105.5 20.5t-81 58.5t-52 92.5t-18.5 122.5zM62 404v92h461v-92h-461zM152 870q0 -190 140 -190q141 0 141 190 q0 189 -141 189q-140 0 -140 -189z" />
<glyph unicode="&#xbb;" d="M110 56l203 356l-203 356h115l248 -356l-248 -356h-115zM415 56l204 356l-204 356h115l248 -356l-248 -356h-115z" />
<glyph unicode="&#xbc;" horiz-adv-x="1332" d="M99 916v96q203 0 203 146h84v-586h-113v382q-53 -38 -174 -38zM211 0l812 1143h124l-813 -1143h-123zM768 120v95l315 370h96v-364h81v-101h-81v-120h-112v120h-299zM878 221h189v221z" />
<glyph unicode="&#xbd;" horiz-adv-x="1332" d="M99 916v96q203 0 203 146h84v-586h-113v382q-53 -38 -174 -38zM182 0l812 1143h124l-813 -1143h-123zM801 0q18 128 202 239q51 30 81.5 52.5t47.5 41t22.5 36t5.5 38.5q0 86 -107 86q-101 0 -117 -76h-119q33 169 238 169q53 0 95.5 -12.5t72 -35.5t45.5 -54.5t16 -69.5 q0 -34 -8 -61t-27 -52t-50.5 -49.5t-77.5 -52.5q-90 -53 -139 -105h305v-94h-486z" />
<glyph unicode="&#xbe;" horiz-adv-x="1332" d="M42 725h121q9 -77 115 -77q119 0 119 105q0 79 -122 79h-44v87q140 0 140 83q0 65 -94 65q-89 0 -101 -64h-122q30 155 224 155q51 0 90.5 -11.5t67 -31t42 -46t14.5 -57.5q0 -104 -107 -134q134 -24 134 -140q0 -38 -16.5 -70.5t-47 -57t-74 -38.5t-98.5 -14 q-218 0 -241 167zM225 0l813 1143h123l-812 -1143h-124zM768 120v95l315 370h96v-364h81v-101h-81v-120h-112v120h-299zM878 221h189v221z" />
<glyph unicode="&#xbf;" d="M76 -24q0 76 36 142q35 66 131 145t117 126q21 48 21 157h138q0 -145 -34 -212q-33 -68 -123 -144q-46 -39 -72.5 -67t-40 -50.5t-17 -43t-3.5 -43.5q0 -45 15.5 -82.5t44 -65.5t67.5 -43.5t86 -15.5q188 0 221 216h151q-6 -76 -36 -137t-78.5 -104t-113.5 -66t-142 -23 q-81 0 -149 23t-116.5 64.5t-75.5 98.5t-27 125zM366 668v160h160v-160h-160z" />
<glyph unicode="&#xc0;" horiz-adv-x="1065" d="M-2 0l440 1143h163l466 -1143h-171l-132 348h-479l-127 -348h-160zM321 1435h184l104 -219h-116zM326 468h393l-201 530z" />
<glyph unicode="&#xc1;" horiz-adv-x="1065" d="M-2 0l440 1143h163l466 -1143h-171l-132 348h-479l-127 -348h-160zM326 468h393l-201 530zM428 1216l104 219h184l-173 -219h-115z" />
<glyph unicode="&#xc2;" horiz-adv-x="1065" d="M-2 0l440 1143h163l466 -1143h-171l-132 348h-479l-127 -348h-160zM268 1216l172 219h150l172 -219h-159l-88 132l-88 -132h-159zM326 468h393l-201 530z" />
<glyph unicode="&#xc3;" horiz-adv-x="1065" d="M-2 0l440 1143h163l466 -1143h-171l-132 348h-479l-127 -348h-160zM259 1236q0 42 12 75t33 56t50 35t63 12q42 0 112 -32q70 -33 94 -33q48 0 56 67h102q0 -42 -12 -75t-33 -56t-50 -35.5t-63 -12.5q-40 0 -112 33q-71 33 -94 33q-48 0 -56 -67h-102zM326 468h393 l-201 530z" />
<glyph unicode="&#xc4;" horiz-adv-x="1065" d="M-2 0l440 1143h163l466 -1143h-171l-132 348h-479l-127 -348h-160zM303 1247v160h144v-160h-144zM326 468h393l-201 530zM593 1247v160h143v-160h-143z" />
<glyph unicode="&#xc5;" horiz-adv-x="1065" d="M-2 0l440 1143h163l466 -1143h-171l-132 348h-479l-127 -348h-160zM326 468h393l-201 530zM380 1284q0 29 11 55t30 45.5t44.5 30.5t54.5 11t54.5 -11.5t45 -31t30.5 -45t11 -54.5t-11 -54.5t-30 -45t-45 -31t-55 -11.5q-30 0 -55.5 11.5t-44 31t-29.5 45t-11 54.5z M438 1284q0 -18 6.5 -33.5t17.5 -27t26 -18t32 -6.5q34 0 59 25t25 60q0 16 -7 31.5t-18.5 27t-26.5 18.5t-32 7q-34 0 -58 -25t-24 -59z" />
<glyph unicode="&#xc6;" horiz-adv-x="1597" d="M0 0l658 1143h825v-135h-570v-350h526v-135h-526v-387h596v-136h-747v331h-404l-183 -331h-175zM431 465h331v543h-33z" />
<glyph unicode="&#xc7;" horiz-adv-x="1154" d="M75 572q0 136 38 245.5t107.5 186t168 118t218.5 41.5q92 0 173 -26.5t143 -74.5t101.5 -115.5t47.5 -149.5h-156q-5 54 -29.5 97.5t-65 74.5t-95 47.5t-118.5 16.5q-86 0 -155.5 -30.5t-118.5 -89t-75.5 -144.5t-26.5 -197t26 -197t74.5 -145t117.5 -89.5t155 -30.5 q134 0 217 65t94 188h156q-15 -171 -129 -271q-115 -100 -301 -110v-41q131 -17 131 -125q0 -151 -236 -151q-19 0 -38.5 0.5t-41.5 2.5v91q22 -2 43 -3.5t41 -1.5q101 0 101 64q0 59 -108 59v109q-108 12 -193.5 60t-144.5 124.5t-90 178.5t-31 223z" />
<glyph unicode="&#xc8;" horiz-adv-x="1065" d="M128 0v1143h826v-135h-675v-350h631v-135h-631v-387h701v-136h-852zM350 1435h184l104 -219h-116z" />
<glyph unicode="&#xc9;" horiz-adv-x="1065" d="M128 0v1143h826v-135h-675v-350h631v-135h-631v-387h701v-136h-852zM444 1216l104 219h184l-173 -219h-115z" />
<glyph unicode="&#xca;" horiz-adv-x="1065" d="M128 0v1143h826v-135h-675v-350h631v-135h-631v-387h701v-136h-852zM300 1216l172 219h150l172 -219h-159l-88 132l-88 -132h-159z" />
<glyph unicode="&#xcb;" horiz-adv-x="1065" d="M128 0v1143h826v-135h-675v-350h631v-135h-631v-387h701v-136h-852zM332 1247v160h144v-160h-144zM622 1247v160h143v-160h-143z" />
<glyph unicode="&#xcc;" horiz-adv-x="444" d="M25 1435h184l104 -219h-116zM147 0v1143h152v-1143h-152z" />
<glyph unicode="&#xcd;" horiz-adv-x="444" d="M135 1216l104 219h184l-173 -219h-115zM147 0v1143h152v-1143h-152z" />
<glyph unicode="&#xce;" horiz-adv-x="444" d="M-25 1216l172 219h150l172 -219h-159l-88 132l-88 -132h-159zM147 0v1143h152v-1143h-152z" />
<glyph unicode="&#xcf;" horiz-adv-x="444" d="M6 1247v160h145v-160h-145zM147 0v1143h152v-1143h-152zM299 1247v160h140v-160h-140z" />
<glyph unicode="&#xd0;" horiz-adv-x="1154" d="M2 505v135h126v503h363q582 0 582 -565q0 -578 -582 -578h-363v505h-126zM279 136h208q250 0 340 115t90 327q0 206 -90 317q-90 113 -340 113h-208v-368h312v-135h-312v-369z" />
<glyph unicode="&#xd1;" horiz-adv-x="1154" d="M128 0v1143h154l599 -902v902h145v-1143h-156l-599 902v-902h-143zM333 1236q0 42 12 75t33 56t50 35t63 12q42 0 112 -32q70 -33 94 -33q48 0 56 67h102q0 -42 -12 -75t-33 -56t-50 -35.5t-63 -12.5q-40 0 -112 33q-71 33 -94 33q-48 0 -56 -67h-102z" />
<glyph unicode="&#xd2;" horiz-adv-x="1243" d="M75 572q0 133 40.5 242t113.5 186.5t173.5 120t220.5 42.5q119 0 219.5 -42.5t173 -120t113 -186.5t40.5 -242t-40.5 -242t-113 -187t-173 -120.5t-219.5 -42.5q-120 0 -220.5 42.5t-173.5 120.5t-113.5 187t-40.5 242zM232 572q0 -109 29 -194.5t81 -145t123.5 -91 t156.5 -31.5t156.5 31.5t123.5 91t81 145t29 194.5t-29 194.5t-80.5 145t-122.5 90.5t-155 31q-85 0 -157 -31t-124.5 -90t-82 -145t-29.5 -195zM439 1435h184l104 -219h-116z" />
<glyph unicode="&#xd3;" horiz-adv-x="1243" d="M75 572q0 133 40.5 242t113.5 186.5t173.5 120t220.5 42.5q119 0 219.5 -42.5t173 -120t113 -186.5t40.5 -242t-40.5 -242t-113 -187t-173 -120.5t-219.5 -42.5q-120 0 -220.5 42.5t-173.5 120.5t-113.5 187t-40.5 242zM232 572q0 -109 29 -194.5t81 -145t123.5 -91 t156.5 -31.5t156.5 31.5t123.5 91t81 145t29 194.5t-29 194.5t-80.5 145t-122.5 90.5t-155 31q-85 0 -157 -31t-124.5 -90t-82 -145t-29.5 -195zM533 1216l104 219h184l-173 -219h-115z" />
<glyph unicode="&#xd4;" horiz-adv-x="1243" d="M75 572q0 133 40.5 242t113.5 186.5t173.5 120t220.5 42.5q119 0 219.5 -42.5t173 -120t113 -186.5t40.5 -242t-40.5 -242t-113 -187t-173 -120.5t-219.5 -42.5q-120 0 -220.5 42.5t-173.5 120.5t-113.5 187t-40.5 242zM232 572q0 -109 29 -194.5t81 -145t123.5 -91 t156.5 -31.5t156.5 31.5t123.5 91t81 145t29 194.5t-29 194.5t-80.5 145t-122.5 90.5t-155 31q-85 0 -157 -31t-124.5 -90t-82 -145t-29.5 -195zM374 1216l172 219h150l172 -219h-159l-88 132l-88 -132h-159z" />
<glyph unicode="&#xd5;" horiz-adv-x="1243" d="M75 572q0 133 40.5 242t113.5 186.5t173.5 120t220.5 42.5q119 0 219.5 -42.5t173 -120t113 -186.5t40.5 -242t-40.5 -242t-113 -187t-173 -120.5t-219.5 -42.5q-120 0 -220.5 42.5t-173.5 120.5t-113.5 187t-40.5 242zM232 572q0 -109 29 -194.5t81 -145t123.5 -91 t156.5 -31.5t156.5 31.5t123.5 91t81 145t29 194.5t-29 194.5t-80.5 145t-122.5 90.5t-155 31q-85 0 -157 -31t-124.5 -90t-82 -145t-29.5 -195zM361 1237q0 42 12 75t33 56t50 35t63 12q42 0 112 -32q70 -33 94 -33q48 0 56 67h102q0 -42 -12 -75t-33 -56t-50 -35.5 t-63 -12.5q-40 0 -112 33q-71 33 -94 33q-48 0 -56 -67h-102z" />
<glyph unicode="&#xd6;" horiz-adv-x="1243" d="M75 572q0 133 40.5 242t113.5 186.5t173.5 120t220.5 42.5q119 0 219.5 -42.5t173 -120t113 -186.5t40.5 -242t-40.5 -242t-113 -187t-173 -120.5t-219.5 -42.5q-120 0 -220.5 42.5t-173.5 120.5t-113.5 187t-40.5 242zM232 572q0 -109 29 -194.5t81 -145t123.5 -91 t156.5 -31.5t156.5 31.5t123.5 91t81 145t29 194.5t-29 194.5t-80.5 145t-122.5 90.5t-155 31q-85 0 -157 -31t-124.5 -90t-82 -145t-29.5 -195zM405 1247v160h144v-160h-144zM695 1247v160h143v-160h-143z" />
<glyph unicode="&#xd7;" horiz-adv-x="860" d="M156 378l183 182l-183 182l90 91l184 -182l184 182l90 -91l-183 -182l183 -182l-90 -91l-184 182l-184 -182z" />
<glyph unicode="&#xd8;" horiz-adv-x="1243" d="M62 23l138 152q-125 161 -125 397q0 133 40.5 242t113.5 186.5t173.5 120t220.5 42.5q204 0 350 -122l131 146l78 -65l-138 -154q125 -158 125 -396q0 -133 -40.5 -242t-113 -187t-173 -120.5t-219.5 -42.5q-203 0 -352 122l-131 -145zM232 572q0 -172 68 -284l578 648 q-101 97 -253 97q-85 0 -157 -31t-124.5 -90t-82 -145t-29.5 -195zM366 207q105 -97 256 -97q85 0 156.5 31.5t123.5 91t81 145t29 194.5q0 172 -68 284z" />
<glyph unicode="&#xd9;" horiz-adv-x="1154" d="M128 482v661h151v-659q0 -224 76 -296q75 -71 221 -71q147 0 222 71q76 72 76 296v659h152v-661q0 -206 -50 -306q-100 -196 -400 -196q-198 0 -298 78q-97 76 -124 181q-14 53 -20 113.5t-6 129.5zM378 1435h184l104 -219h-116z" />
<glyph unicode="&#xda;" horiz-adv-x="1154" d="M128 482v661h151v-659q0 -224 76 -296q75 -71 221 -71q147 0 222 71q76 72 76 296v659h152v-661q0 -206 -50 -306q-100 -196 -400 -196q-198 0 -298 78q-97 76 -124 181q-14 53 -20 113.5t-6 129.5zM489 1216l104 219h184l-173 -219h-115z" />
<glyph unicode="&#xdb;" horiz-adv-x="1154" d="M128 482v661h151v-659q0 -224 76 -296q75 -71 221 -71q147 0 222 71q76 72 76 296v659h152v-661q0 -206 -50 -306q-100 -196 -400 -196q-198 0 -298 78q-97 76 -124 181q-14 53 -20 113.5t-6 129.5zM329 1216l172 219h150l172 -219h-159l-88 132l-88 -132h-159z" />
<glyph unicode="&#xdc;" horiz-adv-x="1154" d="M128 482v661h151v-659q0 -224 76 -296q75 -71 221 -71q147 0 222 71q76 72 76 296v659h152v-661q0 -206 -50 -306q-100 -196 -400 -196q-198 0 -298 78q-97 76 -124 181q-14 53 -20 113.5t-6 129.5zM361 1247v160h144v-160h-144zM651 1247v160h143v-160h-143z" />
<glyph unicode="&#xdd;" horiz-adv-x="1065" d="M8 1143h184l342 -526l340 526h184l-450 -659v-484h-151v484zM444 1216l104 219h184l-173 -219h-115z" />
<glyph unicode="&#xde;" horiz-adv-x="1065" d="M128 0v1143h151v-224h276q139 0 234 -27q48 -13 86 -43t64.5 -71t41 -91t14.5 -102q0 -175 -109 -264t-319 -89h-288v-232h-151zM279 367h290q73 0 124.5 14.5t83.5 41.5t46.5 66.5t14.5 90.5q0 34 -9 65t-25 56t-38.5 42.5t-48.5 24.5q-53 15 -152 15h-286v-416z" />
<glyph unicode="&#xdf;" horiz-adv-x="976" d="M108 0v779q0 384 339 384q67 0 121 -17.5t92 -48t58.5 -71.5t20.5 -87q0 -78 -81 -220q-36 -65 -36 -97q0 -19 4.5 -32.5t19.5 -28.5t43.5 -35.5t76.5 -51.5q47 -30 77.5 -59t46.5 -55q32 -53 32 -117q0 -55 -21 -103t-59 -83.5t-90.5 -56t-114.5 -20.5q-57 0 -106.5 15 t-86.5 43t-59 67.5t-25 87.5h140q14 -97 134 -97q31 0 57 10t45 28t29 43t10 55q0 27 -5 45.5t-20 35t-41.5 35t-68.5 45.5q-41 26 -72 49.5t-52 47.5t-31.5 50.5t-10.5 58.5q0 52 58 157q69 123 69 169q0 27 -12 49.5t-33 39t-49.5 25.5t-62.5 9q-44 0 -78.5 -12.5 t-59 -43.5t-37.5 -84t-13 -135v-773h-148z" />
<glyph unicode="&#xe0;" d="M61 219q0 290 500 290h72q0 46 -1.5 77t-7.5 53t-18.5 37t-34.5 29q-44 27 -137 27q-196 0 -202 -141h-147q16 255 357 255q159 0 248 -63q89 -62 89 -248v-535h-146v85q-114 -105 -290 -105q-61 0 -113 17.5t-89.5 49t-58.5 75.5t-21 97zM212 227q0 -63 46.5 -97 t126.5 -34q36 0 71.5 8.5t68.5 24.5t60.5 38.5t47.5 50.5v183h-101q-320 0 -320 -174zM246 1163h184l104 -219h-116z" />
<glyph unicode="&#xe1;" d="M61 219q0 290 500 290h72q0 46 -1.5 77t-7.5 53t-18.5 37t-34.5 29q-44 27 -137 27q-196 0 -202 -141h-147q16 255 357 255q159 0 248 -63q89 -62 89 -248v-535h-146v85q-114 -105 -290 -105q-61 0 -113 17.5t-89.5 49t-58.5 75.5t-21 97zM212 227q0 -63 46.5 -97 t126.5 -34q36 0 71.5 8.5t68.5 24.5t60.5 38.5t47.5 50.5v183h-101q-320 0 -320 -174zM356 944l104 219h184l-173 -219h-115z" />
<glyph unicode="&#xe2;" d="M61 219q0 290 500 290h72q0 46 -1.5 77t-7.5 53t-18.5 37t-34.5 29q-44 27 -137 27q-196 0 -202 -141h-147q16 255 357 255q159 0 248 -63q89 -62 89 -248v-535h-146v85q-114 -105 -290 -105q-61 0 -113 17.5t-89.5 49t-58.5 75.5t-21 97zM197 944l172 219h150l172 -219 h-159l-88 132l-88 -132h-159zM212 227q0 -63 46.5 -97t126.5 -34q36 0 71.5 8.5t68.5 24.5t60.5 38.5t47.5 50.5v183h-101q-320 0 -320 -174z" />
<glyph unicode="&#xe3;" d="M61 219q0 290 500 290h72q0 46 -1.5 77t-7.5 53t-18.5 37t-34.5 29q-44 27 -137 27q-196 0 -202 -141h-147q16 255 357 255q159 0 248 -63q89 -62 89 -248v-535h-146v85q-114 -105 -290 -105q-61 0 -113 17.5t-89.5 49t-58.5 75.5t-21 97zM184 965q0 42 12 75t33 56 t50 35t63 12q42 0 112 -32q70 -33 94 -33q48 0 56 67h102q0 -42 -12 -75t-33 -56t-50 -35.5t-63 -12.5q-40 0 -112 33q-71 33 -94 33q-48 0 -56 -67h-102zM212 227q0 -63 46.5 -97t126.5 -34q36 0 71.5 8.5t68.5 24.5t60.5 38.5t47.5 50.5v183h-101q-320 0 -320 -174z" />
<glyph unicode="&#xe4;" d="M61 219q0 290 500 290h72q0 46 -1.5 77t-7.5 53t-18.5 37t-34.5 29q-44 27 -137 27q-196 0 -202 -141h-147q16 255 357 255q159 0 248 -63q89 -62 89 -248v-535h-146v85q-114 -105 -290 -105q-61 0 -113 17.5t-89.5 49t-58.5 75.5t-21 97zM212 227q0 -63 46.5 -97 t126.5 -34q36 0 71.5 8.5t68.5 24.5t60.5 38.5t47.5 50.5v183h-101q-320 0 -320 -174zM228 976v160h144v-160h-144zM518 976v160h143v-160h-143z" />
<glyph unicode="&#xe5;" d="M61 219q0 290 500 290h72q0 46 -1.5 77t-7.5 53t-18.5 37t-34.5 29q-44 27 -137 27q-196 0 -202 -141h-147q16 255 357 255q159 0 248 -63q89 -62 89 -248v-535h-146v85q-114 -105 -290 -105q-61 0 -113 17.5t-89.5 49t-58.5 75.5t-21 97zM212 227q0 -63 46.5 -97 t126.5 -34q36 0 71.5 8.5t68.5 24.5t60.5 38.5t47.5 50.5v183h-101q-320 0 -320 -174zM305 1059q0 29 11 55t30 45.5t44.5 30.5t54.5 11t54.5 -11.5t45 -31t30.5 -45t11 -54.5t-11 -54.5t-30 -45t-45 -31t-55 -11.5t-54.5 11.5t-44.5 31t-30 45t-11 54.5zM363 1059 q0 -18 6.5 -33.5t17.5 -27t26 -18t32 -6.5q34 0 59 25t25 60q0 34 -24.5 59t-59.5 25q-34 0 -58 -25t-24 -59z" />
<glyph unicode="&#xe6;" horiz-adv-x="1420" d="M61 219q0 290 483 290h73q0 49 -4.5 90t-23.5 70.5t-57 46t-105 16.5q-185 0 -195 -141h-147q18 255 349 255q214 0 285 -105q102 105 265 105q87 0 157.5 -28.5t120 -84t76 -136t26.5 -184.5v-35h-600q4 -71 22.5 -124t49.5 -88t72.5 -52.5t91.5 -17.5q37 0 72 10 t62 29.5t44 47.5t19 64h152q-9 -64 -38.5 -114t-75.5 -84t-105.5 -51.5t-129.5 -17.5q-214 0 -320 160q-45 -71 -118 -115q-77 -45 -227 -45q-61 0 -111.5 17.5t-86.5 49t-56 75.5t-20 97zM212 227q0 -131 165 -131q54 0 98 15.5t75.5 46.5t49 77t17.5 107v59h-101 q-304 0 -304 -174zM767 494h442q-36 238 -225 238q-184 0 -217 -238z" />
<glyph unicode="&#xe7;" horiz-adv-x="799" d="M56 413q0 104 28 184.5t79 136t122.5 84t158.5 28.5q67 0 125 -17.5t101.5 -51t71.5 -83.5t36 -114h-152q-2 37 -17 65.5t-39.5 47.5t-57 29t-68.5 10q-52 0 -95.5 -20t-75 -59.5t-49 -99.5t-17.5 -140q0 -78 17 -137.5t48.5 -99.5t75 -60t96.5 -20q36 0 68.5 9.5 t57 28.5t39.5 47.5t17 65.5h152q-32 -238 -291 -265v-41q132 -17 132 -125q0 -151 -238 -151q-17 0 -37 0.5t-42 2.5v91q22 -2 43 -3.5t42 -1.5q100 0 100 64q0 59 -109 59v109q-152 22 -238 134q-84 111 -84 293z" />
<glyph unicode="&#xe8;" d="M56 413q0 102 28.5 182.5t79.5 136t122.5 85t157.5 29.5q88 0 159.5 -29t122.5 -84.5t78.5 -136t27.5 -183.5v-35h-623q5 -73 26 -126t54.5 -87.5t77 -51.5t93.5 -17q38 0 74 10t64.5 29t46.5 47.5t20 64.5h152q-9 -64 -39.5 -114t-78 -84t-108.5 -51.5t-131 -17.5 q-91 0 -165.5 29.5t-127.5 85t-82 136t-29 182.5zM212 494h465q-18 120 -80 179t-153 59q-44 0 -82 -14.5t-68.5 -44t-51.5 -74.5t-30 -105zM246 1163h184l104 -219h-116z" />
<glyph unicode="&#xe9;" d="M56 413q0 102 28.5 182.5t79.5 136t122.5 85t157.5 29.5q88 0 159.5 -29t122.5 -84.5t78.5 -136t27.5 -183.5v-35h-623q5 -73 26 -126t54.5 -87.5t77 -51.5t93.5 -17q38 0 74 10t64.5 29t46.5 47.5t20 64.5h152q-9 -64 -39.5 -114t-78 -84t-108.5 -51.5t-131 -17.5 q-91 0 -165.5 29.5t-127.5 85t-82 136t-29 182.5zM212 494h465q-18 120 -80 179t-153 59q-44 0 -82 -14.5t-68.5 -44t-51.5 -74.5t-30 -105zM356 944l104 219h184l-173 -219h-115z" />
<glyph unicode="&#xea;" d="M56 413q0 102 28.5 182.5t79.5 136t122.5 85t157.5 29.5q88 0 159.5 -29t122.5 -84.5t78.5 -136t27.5 -183.5v-35h-623q5 -73 26 -126t54.5 -87.5t77 -51.5t93.5 -17q38 0 74 10t64.5 29t46.5 47.5t20 64.5h152q-9 -64 -39.5 -114t-78 -84t-108.5 -51.5t-131 -17.5 q-91 0 -165.5 29.5t-127.5 85t-82 136t-29 182.5zM197 944l172 219h150l172 -219h-159l-88 132l-88 -132h-159zM212 494h465q-18 120 -80 179t-153 59q-44 0 -82 -14.5t-68.5 -44t-51.5 -74.5t-30 -105z" />
<glyph unicode="&#xeb;" d="M56 413q0 102 28.5 182.5t79.5 136t122.5 85t157.5 29.5q88 0 159.5 -29t122.5 -84.5t78.5 -136t27.5 -183.5v-35h-623q5 -73 26 -126t54.5 -87.5t77 -51.5t93.5 -17q38 0 74 10t64.5 29t46.5 47.5t20 64.5h152q-9 -64 -39.5 -114t-78 -84t-108.5 -51.5t-131 -17.5 q-91 0 -165.5 29.5t-127.5 85t-82 136t-29 182.5zM212 494h465q-18 120 -80 179t-153 59q-44 0 -82 -14.5t-68.5 -44t-51.5 -74.5t-30 -105zM228 976v160h144v-160h-144zM518 976v160h143v-160h-143z" />
<glyph unicode="&#xec;" horiz-adv-x="364" d="M-16 1163h184l104 -219h-115zM108 0v828h148v-828h-148z" />
<glyph unicode="&#xed;" horiz-adv-x="364" d="M94 944l104 219h184l-172 -219h-116zM108 0v828h148v-828h-148z" />
<glyph unicode="&#xee;" horiz-adv-x="364" d="M-65 944l172 219h150l172 -219h-159l-88 132l-88 -132h-159zM108 0v828h148v-828h-148z" />
<glyph unicode="&#xef;" horiz-adv-x="364" d="M-34 976v160h144v-160h-144zM108 0v828h148v-828h-148zM256 976v160h143v-160h-143z" />
<glyph unicode="&#xf0;" d="M56 404q0 101 28 180t79 133t122.5 82.5t158.5 28.5q69 0 125 -29q-41 85 -103 153l-190 -88l-40 75l168 77q-32 32 -72.5 63.5t-88.5 63.5h169q37 -27 61.5 -46.5t35.5 -31.5l168 78l41 -74l-142 -67q69 -79 118 -153t79 -144q59 -137 59 -301q0 -100 -27.5 -178.5 t-78.5 -133t-122.5 -83.5t-159.5 -29t-159.5 28.5t-122.5 83t-78.5 133t-27.5 179.5zM207 404q0 -77 17 -134.5t48.5 -96t75 -58t96.5 -19.5q52 0 95.5 19.5t75 58t48.5 96t17 134.5t-17.5 134.5t-49 96t-74.5 58t-95 19.5t-95.5 -19.5t-75 -58t-49 -96t-17.5 -134.5z" />
<glyph unicode="&#xf1;" d="M108 0v828h148v-106q109 124 247 124q280 0 280 -305v-541h-147v535q0 102 -36.5 146t-119.5 44q-112 0 -224 -132v-593h-148zM184 965q0 42 12 75t33 56t50 35t63 12q42 0 112 -32q70 -33 94 -33q48 0 56 67h102q0 -42 -12 -75t-33 -56t-50 -35.5t-63 -12.5 q-40 0 -112 33q-71 33 -94 33q-48 0 -56 -67h-102z" />
<glyph unicode="&#xf2;" d="M56 413q0 104 28 184.5t79 136t122.5 84t158.5 28.5q88 0 159.5 -29t122.5 -84.5t78.5 -136t27.5 -183.5q0 -102 -27.5 -182.5t-78.5 -136t-122.5 -85t-159.5 -29.5t-159.5 29t-122.5 84t-78.5 135.5t-27.5 184.5zM207 413q0 -78 17 -137.5t48.5 -99.5t75 -60t96.5 -20 q52 0 95.5 20t75 60t48.5 99.5t17 137.5q0 80 -17.5 140t-49 99.5t-74.5 59.5t-95 20t-95.5 -20t-75 -59.5t-49 -99.5t-17.5 -140zM246 1163h184l104 -219h-116z" />
<glyph unicode="&#xf3;" d="M56 413q0 104 28 184.5t79 136t122.5 84t158.5 28.5q88 0 159.5 -29t122.5 -84.5t78.5 -136t27.5 -183.5q0 -102 -27.5 -182.5t-78.5 -136t-122.5 -85t-159.5 -29.5t-159.5 29t-122.5 84t-78.5 135.5t-27.5 184.5zM207 413q0 -78 17 -137.5t48.5 -99.5t75 -60t96.5 -20 q52 0 95.5 20t75 60t48.5 99.5t17 137.5q0 80 -17.5 140t-49 99.5t-74.5 59.5t-95 20t-95.5 -20t-75 -59.5t-49 -99.5t-17.5 -140zM356 944l104 219h184l-173 -219h-115z" />
<glyph unicode="&#xf4;" d="M56 413q0 104 28 184.5t79 136t122.5 84t158.5 28.5q88 0 159.5 -29t122.5 -84.5t78.5 -136t27.5 -183.5q0 -102 -27.5 -182.5t-78.5 -136t-122.5 -85t-159.5 -29.5t-159.5 29t-122.5 84t-78.5 135.5t-27.5 184.5zM197 944l172 219h150l172 -219h-159l-88 132l-88 -132 h-159zM207 413q0 -78 17 -137.5t48.5 -99.5t75 -60t96.5 -20q52 0 95.5 20t75 60t48.5 99.5t17 137.5q0 80 -17.5 140t-49 99.5t-74.5 59.5t-95 20t-95.5 -20t-75 -59.5t-49 -99.5t-17.5 -140z" />
<glyph unicode="&#xf5;" d="M56 413q0 104 28 184.5t79 136t122.5 84t158.5 28.5q88 0 159.5 -29t122.5 -84.5t78.5 -136t27.5 -183.5q0 -102 -27.5 -182.5t-78.5 -136t-122.5 -85t-159.5 -29.5t-159.5 29t-122.5 84t-78.5 135.5t-27.5 184.5zM184 965q0 42 12 75t33 56t50 35t63 12q42 0 112 -32 q70 -33 94 -33q48 0 56 67h102q0 -42 -12 -75t-33 -56t-50 -35.5t-63 -12.5q-40 0 -112 33q-71 33 -94 33q-48 0 -56 -67h-102zM207 413q0 -78 17 -137.5t48.5 -99.5t75 -60t96.5 -20q52 0 95.5 20t75 60t48.5 99.5t17 137.5q0 80 -17.5 140t-49 99.5t-74.5 59.5t-95 20 t-95.5 -20t-75 -59.5t-49 -99.5t-17.5 -140z" />
<glyph unicode="&#xf6;" d="M56 413q0 104 28 184.5t79 136t122.5 84t158.5 28.5q88 0 159.5 -29t122.5 -84.5t78.5 -136t27.5 -183.5q0 -102 -27.5 -182.5t-78.5 -136t-122.5 -85t-159.5 -29.5t-159.5 29t-122.5 84t-78.5 135.5t-27.5 184.5zM207 413q0 -78 17 -137.5t48.5 -99.5t75 -60t96.5 -20 q52 0 95.5 20t75 60t48.5 99.5t17 137.5q0 80 -17.5 140t-49 99.5t-74.5 59.5t-95 20t-95.5 -20t-75 -59.5t-49 -99.5t-17.5 -140zM228 976v160h144v-160h-144zM518 976v160h143v-160h-143z" />
<glyph unicode="&#xf7;" horiz-adv-x="860" d="M105 497v127h649v-127h-649zM330 310q0 41 29.5 70.5t70.5 29.5t70.5 -29.5t29.5 -70.5t-29.5 -70.5t-70.5 -29.5t-70.5 29.5t-29.5 70.5zM330 821q0 41 29.5 70.5t70.5 29.5t70.5 -29.5t29.5 -70.5t-29.5 -70.5t-70.5 -29.5t-70.5 29.5t-29.5 70.5z" />
<glyph unicode="&#xf8;" d="M56 413q0 104 28 184.5t79 136t122.5 84t158.5 28.5q130 0 225 -63l78 102l74 -56l-83 -108q94 -116 94 -308q0 -102 -27.5 -182.5t-78.5 -136t-122.5 -85t-159.5 -29.5q-129 0 -225 64l-79 -100l-73 56q83 107 81 107q-92 116 -92 306zM207 413q0 -112 34 -186l349 452 q-64 53 -146 53q-52 0 -95.5 -20t-75 -59.5t-49 -99.5t-17.5 -140zM297 148q61 -52 147 -52q52 0 95.5 20t75 60t48.5 99.5t17 137.5q0 115 -35 188q-347 -453 -348 -453z" />
<glyph unicode="&#xf9;" d="M105 286v542h148v-536q0 -101 35.5 -145.5t118.5 -44.5q123 0 226 133v593h146v-828h-146v105q-111 -125 -248 -125q-280 0 -280 306zM246 1163h184l104 -219h-116z" />
<glyph unicode="&#xfa;" d="M105 286v542h148v-536q0 -101 35.5 -145.5t118.5 -44.5q123 0 226 133v593h146v-828h-146v105q-111 -125 -248 -125q-280 0 -280 306zM356 944l104 219h184l-173 -219h-115z" />
<glyph unicode="&#xfb;" d="M105 286v542h148v-536q0 -101 35.5 -145.5t118.5 -44.5q123 0 226 133v593h146v-828h-146v105q-111 -125 -248 -125q-280 0 -280 306zM197 944l172 219h150l172 -219h-159l-88 132l-88 -132h-159z" />
<glyph unicode="&#xfc;" d="M105 286v542h148v-536q0 -101 35.5 -145.5t118.5 -44.5q123 0 226 133v593h146v-828h-146v105q-111 -125 -248 -125q-280 0 -280 306zM228 976v160h144v-160h-144zM518 976v160h143v-160h-143z" />
<glyph unicode="&#xfd;" horiz-adv-x="799" d="M21 828h159l219 -648l220 648h159l-313 -828q-23 -60 -42.5 -105.5t-34.5 -77.5q-16 -32 -36.5 -59.5t-46 -48t-57 -32.5t-68.5 -12q-27 0 -51 2.5t-44 8.5v135q36 -11 70 -11q110 0 179 200zM311 944l104 219h184l-173 -219h-115z" />
<glyph unicode="&#xfe;" d="M108 -318v1461h148v-414q97 117 236 117q81 0 144 -30t106.5 -85.5t66.5 -134.5t23 -176q0 -101 -26.5 -182.5t-73.5 -138.5t-111 -88t-139 -31q-133 0 -226 84v-382h-148zM256 197q94 -101 217 -101q96 0 151.5 81t55.5 243q0 154 -52.5 233t-148.5 79q-122 0 -223 -142 v-393z" />
<glyph unicode="&#xff;" horiz-adv-x="799" d="M21 828h159l219 -648l220 648h159l-313 -828q-23 -60 -42.5 -105.5t-34.5 -77.5q-16 -32 -36.5 -59.5t-46 -48t-57 -32.5t-68.5 -12q-27 0 -51 2.5t-44 8.5v135q36 -11 70 -11q110 0 179 200zM184 976v160h144v-160h-144zM474 976v160h143v-160h-143z" />
<glyph unicode="&#x152;" horiz-adv-x="1597" d="M75 572q0 137 32.5 246.5t94 186t150.5 117.5t201 41q90 0 180 -46q45 -23 79 -54t60 -69v149h614v-135h-462v-350h418v-135h-418v-387h488v-136h-640v151q-51 -79 -139 -124q-89 -47 -180 -47q-112 0 -201 41t-150.5 117.5t-94 186t-32.5 247.5zM232 572 q0 -111 22 -197.5t63 -145t100.5 -89t133.5 -30.5q321 0 321 462q0 461 -317 461q-75 0 -135 -30t-102 -88.5t-64 -144.5t-22 -198z" />
<glyph unicode="&#x153;" horiz-adv-x="1508" d="M56 413q0 104 28 184.5t79 136t122.5 84t158.5 28.5q206 0 312 -148q108 148 308 148q88 0 159.5 -29t122.5 -84.5t78.5 -136t27.5 -183.5v-35h-623q4 -72 25 -125t54.5 -88t77.5 -52t94 -17q37 0 73.5 10t65 29t46.5 47.5t20 64.5h151q-8 -64 -38.5 -114t-78 -84 t-108.5 -51.5t-131 -17.5q-212 0 -324 151q-105 -151 -312 -151q-88 0 -159.5 29t-122.5 84t-78.5 135.5t-27.5 184.5zM207 413q0 -78 17 -137.5t48.5 -99.5t75 -60t96.5 -20q52 0 95.5 20t75 60t48.5 99.5t17 137.5q0 80 -17.5 140t-49 99.5t-74.5 59.5t-95 20t-95.5 -20 t-75 -59.5t-49 -99.5t-17.5 -140zM832 494h465q-19 120 -81 179t-152 59q-44 0 -82 -14.5t-68.5 -44t-51.5 -74.5t-30 -105z" />
<glyph unicode="&#x178;" horiz-adv-x="1065" d="M8 1143h184l342 -526l340 526h184l-450 -659v-484h-151v484zM317 1247v160h144v-160h-144zM607 1247v160h143v-160h-143z" />
<glyph unicode="&#x2c6;" horiz-adv-x="532" d="M18 944l172 219h150l172 -219h-159l-88 132l-88 -132h-159z" />
<glyph unicode="&#x2dc;" horiz-adv-x="532" d="M5 965q0 42 12 75t33 56t50 35t63 12q42 0 112 -32q70 -33 94 -33q48 0 56 67h102q0 -42 -12 -75t-33 -56t-50 -35.5t-63 -12.5q-40 0 -112 33q-71 33 -94 33q-48 0 -56 -67h-102z" />
<glyph unicode="&#x2000;" horiz-adv-x="921" />
<glyph unicode="&#x2001;" horiz-adv-x="1842" />
<glyph unicode="&#x2002;" horiz-adv-x="921" />
<glyph unicode="&#x2003;" horiz-adv-x="1842" />
<glyph unicode="&#x2004;" horiz-adv-x="614" />
<glyph unicode="&#x2005;" horiz-adv-x="460" />
<glyph unicode="&#x2006;" horiz-adv-x="307" />
<glyph unicode="&#x2007;" horiz-adv-x="307" />
<glyph unicode="&#x2008;" horiz-adv-x="230" />
<glyph unicode="&#x2009;" horiz-adv-x="368" />
<glyph unicode="&#x200a;" horiz-adv-x="102" />
<glyph unicode="&#x2010;" horiz-adv-x="860" d="M105 497v127h648v-127h-648z" />
<glyph unicode="&#x2011;" horiz-adv-x="860" d="M105 497v127h648v-127h-648z" />
<glyph unicode="&#x2012;" horiz-adv-x="860" d="M105 497v127h648v-127h-648z" />
<glyph unicode="&#x2013;" horiz-adv-x="860" d="M106 497v127h648v-127h-648z" />
<glyph unicode="&#x2014;" horiz-adv-x="1520" d="M112 497v127h1296v-127h-1296z" />
<glyph unicode="&#x2018;" horiz-adv-x="355" d="M97 778v160q0 50 10 91.5t30 71t50 46t70 16.5v-75q-78 0 -78 -150h78v-160h-160z" />
<glyph unicode="&#x2019;" horiz-adv-x="355" d="M97 759v75q78 0 78 150h-78v159h160v-159q0 -103 -40 -164t-120 -61z" />
<glyph unicode="&#x201a;" horiz-adv-x="444" d="M142 0v160h160v-160q0 -50 -10 -91.5t-30 -71t-50 -46t-70 -16.5v74q78 0 78 151h-78z" />
<glyph unicode="&#x201c;" horiz-adv-x="532" d="M66 778v160q0 50 10 91.5t30 71t49.5 46t69.5 16.5v-75q-78 0 -78 -150h78v-160h-159zM307 778v160q0 50 10 91.5t30 71t49.5 46t69.5 16.5v-75q-78 0 -78 -150h78v-160h-159z" />
<glyph unicode="&#x201d;" horiz-adv-x="532" d="M66 759v75q78 0 78 150h-78v159h159v-159q0 -103 -40 -164t-119 -61zM307 759v75q78 0 78 150h-78v159h159v-159q0 -103 -40 -164t-119 -61z" />
<glyph unicode="&#x201e;" horiz-adv-x="626" d="M112 0v160h160v-160q0 -50 -10 -91.5t-30 -71t-50 -46t-70 -16.5v74q78 0 78 151h-78zM353 0v160h160v-160q0 -50 -10 -91.5t-30 -71t-50 -46t-70 -16.5v74q79 0 79 151h-79z" />
<glyph unicode="&#x2022;" horiz-adv-x="559" d="M81 559q0 40 16 76t43 63t63 43t76 16t76 -16t63 -43t43 -63t16 -76t-16 -76t-43 -63t-63 -43t-76 -16t-76 16t-63 43t-43 63t-16 76z" />
<glyph unicode="&#x2026;" horiz-adv-x="1300" d="M190 100q0 41 29.5 70.5t70.5 29.5t70.5 -29.5t29.5 -70.5t-29.5 -70.5t-70.5 -29.5t-70.5 29.5t-29.5 70.5zM550 100q0 41 29.5 70.5t70.5 29.5t70.5 -29.5t29.5 -70.5t-29.5 -70.5t-70.5 -29.5t-70.5 29.5t-29.5 70.5zM910 100q0 41 29.5 70.5t70.5 29.5t70.5 -29.5 t29.5 -70.5t-29.5 -70.5t-70.5 -29.5t-70.5 29.5t-29.5 70.5z" />
<glyph unicode="&#x202f;" horiz-adv-x="368" />
<glyph unicode="&#x2039;" horiz-adv-x="532" d="M70 412l248 356h115l-203 -356l203 -356h-115z" />
<glyph unicode="&#x203a;" horiz-adv-x="532" d="M99 56l203 356l-203 356h115l248 -356l-248 -356h-115z" />
<glyph unicode="&#x205f;" horiz-adv-x="460" />
<glyph unicode="&#x20ac;" d="M0 409v83h73q0 12 -0.5 31.5t-0.5 46.5q0 26 0.5 45t0.5 30h-73v84h80q45 434 364 434q153 0 245.5 -94t113.5 -269h-151q-11 115 -65.5 181.5t-142.5 66.5q-179 0 -212 -319h237l-24 -84h-220q0 -11 -0.5 -30t-0.5 -45q0 -27 0.5 -46.5t0.5 -31.5h174l-24 -83h-143 q33 -313 212 -313q182 0 208 268h151q-35 -384 -359 -384q-316 0 -364 429h-80z" />
<glyph unicode="&#x2122;" horiz-adv-x="1092" d="M39 1050v93h408v-93h-151v-464h-106v464h-151zM512 586v557h153l96 -429l97 429h153v-557h-97v455l-104 -455h-97l-105 455v-455h-96z" />
<glyph unicode="&#x25fc;" horiz-adv-x="830" d="M0 0v830h830v-830h-830z" />
</font>
</defs>
</svg>
